<svg id="Layer_1" data-name="Layer 1" xmlns="http://www.w3.org/2000/svg" viewBox="0 0 60 60"><defs><style>.cls-1{fill:#fff;}.cls-2{fill:#0288d1;}</style></defs><circle class="cls-1" cx="30" cy="30" r="27.09"/><path class="cls-2" d="M34.28,16.86a2.15,2.15,0,0,0-4-.52l-.33.58-.33-.58a2.17,2.17,0,0,0-3-.79h0a2.17,2.17,0,0,0-.79,2.95l1.58,2.73L21.69,31.3H17.45a2.16,2.16,0,0,0,0,4.32H33.83L31.34,31.3H26.67l7.4-12.8A2.18,2.18,0,0,0,34.28,16.86Z"/><path class="cls-2" d="M42.55,31.3H38.31L33.49,23,31,27.27l7.48,13a2.15,2.15,0,0,0,1.31,1,2.68,2.68,0,0,0,.56.07,2.16,2.16,0,0,0,1.87-3.24L40.8,35.62h1.75a2.16,2.16,0,0,0,0-4.32Z"/><path class="cls-2" d="M18.21,37.34l-.43.73a2.17,2.17,0,0,0,.79,3,2.11,2.11,0,0,0,1.08.29,2.17,2.17,0,0,0,1.87-1.08l1.67-2.89Z"/></svg>