<svg id="Layer_1" data-name="Layer 1" xmlns="http://www.w3.org/2000/svg" viewBox="0 0 60 60"><defs><style>.cls-1{fill:#fff;}.cls-2{fill:#0288d1;}</style></defs><circle class="cls-1" cx="30" cy="30" r="27.09"/><path class="cls-2" d="M44.38,27.15,24,15.51a3.28,3.28,0,0,0-4.91,2.85V41.64A3.29,3.29,0,0,0,24,44.49L44.38,32.85a3.29,3.29,0,0,0,0-5.7ZM35.56,24.4l-2.8,3.89L26.07,19ZM22.26,42.92a1.32,1.32,0,0,1-.52-.16,1.3,1.3,0,0,1-.65-1.12V18.36a1.3,1.3,0,0,1,.65-1.12,1.34,1.34,0,0,1,.51-.17L31.53,30ZM26.07,41l6.69-9.31,2.8,3.89Zm17.32-9.9-6.1,3.49L34,30l3.31-4.61,6.1,3.49a1.29,1.29,0,0,1,0,2.24Z"/></svg>