<?xml version="1.0" encoding="UTF-8"?>
<svg xmlns="http://www.w3.org/2000/svg" xmlns:xlink="http://www.w3.org/1999/xlink" version="1.1" id="Capa_1" x="0px" y="0px" viewBox="0 0 512 512" style="enable-background:new 0 0 512 512;" xml:space="preserve" width="512" height="512">
<defs>
	<style>
	  .cls-1 {
		fill-rule:evenodd;
		clip-rule:evenodd;
		fill:none;
		stroke:#2287c8;
		stroke-width:15.0001;
		stroke-miterlimit:22.9256;
	  }
	</style>
</defs>
<g>
	<path class="cls-1" d="&#10;&#9;&#9;M67.499,453.204v-180 M67.499,213.205v-15c0-8.251-6.749-15.001-15-15.001c-8.25,0-15,6.751-15,15.001v15 M37.5,273.204v180"/>
	<path class="cls-1" d="&#10;&#9;&#9;M37.5,243.204c-8.25,0-15-6.75-15-15c0-8.25,6.75-15,15-15h30c8.25,0,15,6.75,15,15c0,8.25-6.75,15-15,15"/>
	<path class="cls-1" d="&#10;&#9;&#9;M37.5,243.204h30c8.25,0,15,6.75,15,15c0,8.25-6.75,15-15,15h-30c-8.25,0-15-6.75-15-15C22.5,249.954,29.25,243.204,37.5,243.204z"/>
	
		<ellipse transform="matrix(0.1602 -0.9871 0.9871 0.1602 -107.1352 180.4847)" class="cls-1" cx="52.5" cy="153.204" rx="30" ry="30"/>
	<path class="cls-1" d="&#10;&#9;&#9;M97.499,483.039v-15c0-8.25-6.753-15-15-15H22.5c-8.247,0-15,6.754-15,15v15H452 M467,483.039H504.5v-15c0-8.25-6.753-15-15-15&#10;&#9;&#9;h-59.999c-8.247,0-15,6.754-15,15v15"/>
	<path class="cls-1" d="&#10;&#9;&#9;M474.5,453.204v-180 M474.5,213.205v-15c0-8.251-6.749-15.001-15-15.001c-8.25,0-15,6.751-15,15.001v15 M444.5,273.204v180"/>
	<path class="cls-1" d="&#10;&#9;&#9;M444.5,243.204c-8.25,0-15-6.75-15-15c0-8.25,6.75-15,15-15h30c8.25,0,15,6.75,15,15c0,8.25-6.75,15-15,15"/>
	<path class="cls-1" d="&#10;&#9;&#9;M444.5,243.204h30c8.25,0,15,6.75,15,15c0,8.25-6.75,15-15,15h-30c-8.25,0-15-6.75-15-15&#10;&#9;&#9;C429.501,249.954,436.25,243.204,444.5,243.204z"/>
	
		<circle class="cls-1" cx="459.5" cy="153.204" r="30"/>
	
		<polyline class="cls-1" points="&#10;&#9;&#9;166,295.704 166,258.204 346,258.204 346,295.704 &#9;"/>
	
		<rect x="143.5" y="295.704" class="cls-1" width="224.999" height="37.5"/>
	<path class="cls-1" d="&#10;&#9;&#9;M143.5,333.204l-76.001,120 M368.5,333.204l76.001,120"/>
	
		<polygon class="cls-1" points="&#10;&#9;&#9;256,37.292 274.709,72.07 313.567,79.117 286.272,107.657 291.578,146.791 256,129.652 220.421,146.791 225.728,107.657 &#10;&#9;&#9;198.433,79.117 237.291,72.07 &#9;"/>
	<path class="cls-1" d="&#10;&#9;&#9;M351.757,65.525l15.91-15.91 M160.243,65.525l-15.91-15.91 M144.333,134.467l15.91-15.91 M126.759,92.041h22.5 M367.667,134.467&#10;&#9;&#9;l-15.91-15.91 M385.24,92.041h-22.5"/>
	<path class="cls-1" d="&#10;&#9;&#9;M188.5,258.205v-37.5h37.5 M240.999,220.705H323.5v37.5"/>
	<path class="cls-1" d="&#10;&#9;&#9;M358.863,374.057l-8.026-12.673 M374.914,399.402l-8.026-12.673"/>
</g>

</svg>
