<svg id="Layer_1" viewBox="0 0 512 512" xmlns="http://www.w3.org/2000/svg" data-name="Layer 1">
  <defs>
    <style>
      .cls-1 {
      	fill: #2287c8;
      }
    </style>
  </defs>
  <path class="cls-1" d="m97.993 119.195c2.734 2.733 2.734 7.166 0 9.899l-30.054 30.055c-1.321 1.321-3.105 2.05-4.949 2.05-.304 0-.609-.02-.914-.06-2.158-.284-4.061-1.555-5.148-3.44l-10.017-17.35c-1.933-3.348-.786-7.629 2.562-9.562 3.35-1.933 7.63-.786 9.562 2.562l5.456 9.449 23.604-23.604c2.733-2.733 7.166-2.733 9.899 0zm-9.899 82.458-23.604 23.604-5.456-9.449c-1.932-3.348-6.214-4.495-9.562-2.562s-4.495 6.214-2.562 9.562l10.017 17.349c1.088 1.885 2.991 3.156 5.148 3.44.305.041.61.06.914.06 1.844 0 3.628-.729 4.949-2.05l30.054-30.054c2.734-2.733 2.734-7.166 0-9.899-2.733-2.733-7.166-2.733-9.899 0zm243.124 123.729c-8.385 0-16.898-1.084-25.374-3.355-52.262-14.004-83.388-67.915-69.384-120.177 6.783-25.317 23.02-46.477 45.718-59.582 22.698-13.106 49.142-16.587 74.459-9.803 25.316 6.784 46.477 23.021 59.582 45.719 13.105 22.699 16.586 49.142 9.803 74.458-11.733 43.787-51.485 72.737-94.804 72.739zm-81.031-75.756c4.294-10.654 12.419-19.19 22.652-24.046-3.557-4.381-5.694-9.958-5.694-16.027 0-14.045 11.426-25.471 25.471-25.471s25.471 11.426 25.471 25.471c0 6.069-2.137 11.647-5.694 16.028 7.733 3.67 14.263 9.44 18.846 16.641 4.583-7.201 11.113-12.971 18.847-16.641-3.557-4.381-5.694-9.958-5.694-16.027 0-14.045 11.427-25.471 25.472-25.471s25.471 11.426 25.471 25.471c0 6.069-2.137 11.647-5.694 16.028 10.246 4.862 18.378 13.414 22.668 24.086.06-.217.13-.429.188-.647 12.005-44.806-14.679-91.025-59.485-103.03-7.246-1.942-14.604-2.903-21.91-2.903-14.578 0-28.962 3.823-41.925 11.307-19.46 11.235-33.38 29.376-39.196 51.081-4.021 15.007-3.683 30.167.204 44.153zm131.149-40.073c0-6.325-5.146-11.471-11.471-11.471s-11.472 5.146-11.472 11.471 5.146 11.471 11.472 11.471 11.471-5.146 11.471-11.471zm-41.495 46.857h60.045c-4.327-12.53-16.136-21.261-30.022-21.261s-25.696 8.731-30.023 21.261zm-35.753-46.857c0-6.325-5.146-11.471-11.471-11.471s-11.471 5.146-11.471 11.471 5.146 11.471 11.471 11.471 11.471-5.146 11.471-11.471zm-41.495 46.857h60.046c-4.327-12.53-16.137-21.261-30.023-21.261s-25.696 8.731-30.023 21.261zm140.844 14h-144.333c10.834 18.112 28.415 32.213 50.363 38.094 7.264 1.946 14.567 2.875 21.753 2.875 29.519.001 57.088-15.687 72.216-40.97zm103.363 211.863c-2.406 8.979-8.14 16.468-16.145 21.09-5.321 3.072-11.239 4.642-17.246 4.642-3.029 0-6.081-.399-9.09-1.206-8.979-2.406-16.468-8.139-21.09-16.144l-52.815-91.479c-4.224-7.316-3.377-16.188 1.438-22.529l-6.699-11.603c-3.509-6.078-10.407-8.881-17.16-6.977-23.421 6.604-48.292 6.75-71.92.417-5.072-1.359-9.994-2.999-14.767-4.881-2.352 12.469-13.318 21.933-26.459 21.933h-223.921c-14.851 0-26.932-12.082-26.932-26.932v-274.766c0-14.851 12.082-26.932 26.932-26.932h41.873v-.301c0-5.75 2.424-10.954 6.826-14.653s9.946-5.192 15.61-4.201l16.497 2.884c2.358-15.073 15.431-26.641 31.155-26.641s28.797 11.568 31.156 26.641l16.498-2.884c5.664-.989 11.208.502 15.609 4.201 4.401 3.698 6.826 8.902 6.826 14.652v.301h41.873c14.851 0 26.932 12.082 26.932 26.932v26.836c26.845-10.556 56.246-12.27 84.625-4.665 72.366 19.39 115.465 94.039 96.075 166.405-6.331 23.627-18.891 45.093-36.322 62.076-5.027 4.897-6.046 12.271-2.538 18.349l6.696 11.598c2.594-.33 5.254-.157 7.859.542 5.263 1.41 9.657 4.778 12.374 9.482l52.815 91.479c4.622 8.005 5.842 17.358 3.436 26.336zm-420.001-416.264h112.176v-19.404c0-1.634-.583-2.884-1.833-3.935-1.251-1.051-2.585-1.411-4.191-1.128l-24.324 4.251c-2.036.357-4.126-.207-5.708-1.537-1.583-1.33-2.497-3.292-2.497-5.359v-3.37c0-9.668-7.866-17.535-17.535-17.535s-17.535 7.866-17.535 17.535v3.37c0 2.067-.914 4.029-2.497 5.359s-3.674 1.895-5.708 1.537l-24.323-4.251c-1.613-.282-2.942.077-4.192 1.127-1.25 1.051-1.833 2.301-1.833 3.935v19.404zm180.981 281.389c-11.667-6.161-22.191-13.914-31.375-22.9-1.196.952-2.707 1.525-4.354 1.525h-112.8c-3.866 0-7-3.134-7-7s3.134-7 7-7h105.886c-4.009-5.03-7.653-10.333-10.91-15.865h-94.976c-3.866 0-7-3.134-7-7s3.134-7 7-7h87.782c-5.398-12.178-9.033-25.175-10.673-38.593h-77.109c-3.866 0-7-3.134-7-7s3.134-7 7-7h76.128c-.092-5.255.131-10.551.666-15.866h-76.794c-3.866 0-7-3.134-7-7s3.134-7 7-7h78.948c.528-2.54 1.122-5.079 1.802-7.616 2.932-10.941 7.139-21.321 12.495-30.977h-93.245c-3.866 0-7-3.134-7-7s3.134-7 7-7h102.183c4.273-5.859 9.026-11.361 14.207-16.471-.868.386-1.827.605-2.839.605h-113.551c-3.866 0-7-3.134-7-7s3.134-7 7-7h113.551c3.866 0 7 3.134 7 7 0 1.127-.273 2.187-.745 3.13 7.318-6.728 15.431-12.697 24.249-17.788 1.479-.854 2.974-1.669 4.475-2.464v-33.28c0-7.131-5.801-12.932-12.932-12.932h-41.873v12.103c0 3.866-3.134 7-7 7h-126.177c-3.866 0-7-3.134-7-7v-12.103h-41.873c-7.131 0-12.932 5.801-12.932 12.932v274.769c0 7.131 5.801 12.932 12.932 12.932h223.922c7.13 0 12.932-5.801 12.932-12.933zm129.498 10.648 5.908 10.233 14.218-8.208-5.908-10.233c-6.766-11.718-4.799-25.935 4.892-35.377 15.627-15.226 26.89-34.477 32.568-55.671 8.425-31.443 4.102-64.286-12.174-92.477s-42.557-48.357-74-56.782c-31.443-8.426-64.286-4.101-92.477 12.174-28.191 16.276-48.357 42.557-56.782 74-17.392 64.909 21.266 131.866 86.175 149.258 21.195 5.681 43.499 5.553 64.497-.369 13.025-3.672 26.318 1.734 33.083 13.451zm93.961 104.892-52.815-91.479c-.847-1.466-2.222-2.517-3.872-2.959-.555-.149-1.117-.222-1.675-.222-1.102 0-2.185.287-3.158.849l-24.849 14.346c-3.043 1.757-4.089 5.662-2.333 8.705l52.815 91.479c2.752 4.767 7.223 8.183 12.589 9.621 5.366 1.439 10.946.714 15.712-2.038 4.767-2.752 8.184-7.223 9.622-12.589s.715-10.947-2.037-15.713zm-398.254-178.825c-2.733-2.733-7.166-2.733-9.899 0l-10.077 10.077-10.077-10.077c-2.733-2.733-7.166-2.733-9.899 0-2.734 2.733-2.734 7.166 0 9.899l10.077 10.077-10.077 10.077c-2.734 2.733-2.734 7.166 0 9.899 1.367 1.367 3.158 2.05 4.95 2.05s3.583-.684 4.95-2.05l10.077-10.077 10.077 10.077c1.367 1.367 3.158 2.05 4.95 2.05s3.583-.684 4.95-2.05c2.734-2.733 2.734-7.166 0-9.899l-10.077-10.077 10.077-10.077c2.734-2.733 2.734-7.166 0-9.899zm265.477 216.254c.176 1.958-.479 3.899-1.805 5.351-1.326 1.451-3.201 2.277-5.167 2.277h-340.496c-1.966 0-3.841-.827-5.167-2.277-1.326-1.451-1.981-3.393-1.805-5.351 1.427-15.845 8.688-30.521 20.444-41.323 5.854-5.379 12.576-9.557 19.82-12.411-6.571-6.226-10.683-15.024-10.683-24.769 0-18.825 15.315-34.14 34.14-34.14s34.139 15.315 34.139 34.14c0 9.745-4.111 18.543-10.682 24.769 7.244 2.854 13.966 7.032 19.82 12.411 5.541 5.092 10.069 11.051 13.472 17.581 3.404-6.529 7.931-12.489 13.472-17.581 5.854-5.379 12.576-9.557 19.82-12.411-6.571-6.226-10.682-15.024-10.682-24.769 0-18.825 15.315-34.14 34.14-34.14s34.14 15.315 34.14 34.14c0 9.745-4.111 18.543-10.682 24.769 7.244 2.854 13.966 7.032 19.82 12.411 5.541 5.092 10.069 11.051 13.472 17.581 3.404-6.529 7.931-12.489 13.472-17.581 5.854-5.379 12.576-9.557 19.82-12.411-6.571-6.226-10.682-15.024-10.682-24.769 0-18.825 15.315-34.14 34.14-34.14s34.14 15.315 34.14 34.14c0 9.745-4.111 18.543-10.682 24.769 7.244 2.854 13.966 7.032 19.82 12.411 11.756 10.802 19.017 25.478 20.444 41.323zm-83.86-78.503c0 11.105 9.035 20.139 20.14 20.139s20.14-9.034 20.14-20.139-9.035-20.14-20.14-20.14-20.14 9.035-20.14 20.14zm-113.499 0c0 11.105 9.035 20.139 20.14 20.139s20.14-9.034 20.14-20.139-9.035-20.14-20.14-20.14-20.14 9.035-20.14 20.14zm-113.499 0c0 11.105 9.035 20.139 20.14 20.139s20.139-9.034 20.139-20.139-9.034-20.14-20.139-20.14-20.14 9.035-20.14 20.14zm68.645 72.131c-5.423-22.016-25.086-37.808-48.505-37.808s-43.081 15.792-48.504 37.808h97.008zm113.499 0c-5.423-22.016-25.086-37.808-48.505-37.808s-43.081 15.792-48.504 37.808zm113.499 0c-5.423-22.016-25.086-37.808-48.504-37.808s-43.082 15.792-48.505 37.808z"/></svg>