<?xml version="1.0" encoding="utf-8"?>
<!-- Generator: Adobe Illustrator 25.2.0, SVG Export Plug-In . SVG Version: 6.00 Build 0)  -->
<svg version="1.1" id="Layer_1" xmlns="http://www.w3.org/2000/svg" xmlns:xlink="http://www.w3.org/1999/xlink" x="0px" y="0px"
	 viewBox="0 0 305.7 58" style="enable-background:new 0 0 305.7 58;" xml:space="preserve">
<style type="text/css">
	.st0{fill:#1e88e5;}
</style>
<g>
	<g>
		<path class="st0" d="M85.5,29.4c0.6,0.4,1.1,0.7,1.6,1c0.5,0.3,0.9,0.6,1.3,1c0.7,0.7,1.1,1.5,1.1,2.5v7.2c0,1.3-0.5,2.3-1.4,2.9
			c-0.8,0.6-1.8,0.9-3,0.9H71.6v-7.9h3.1v5h11.5v-8.3L75,26.9c-1-0.6-1.8-1.2-2.4-1.8c-0.6-0.6-1-1.4-1-2.5v-5.4
			c0-1.7,0.4-2.8,1.2-3.5c0.7-0.5,1.9-0.8,3.5-0.8h12.9v7.9h-3.1v-5H75v6.8L85.5,29.4z"/>
		<path class="st0" d="M98.8,42.1h2.7V15.9h-5.4v5h-3.1v-7.9h20.4V21h-3.1v-5H105v26.2h2.8V45h-8.9V42.1z"/>
		<path class="st0" d="M132.1,24v8.9h-2.9v-3h-6v12.2h10.9v-5h2.9V45h-20v-2.9h2.7V15.9H117v-2.9h20v7.9h-2.9v-5h-10.9V27h6v-3
			H132.1z"/>
		<path class="st0" d="M155.6,24v8.9h-2.9v-3h-6v12.2h10.9v-5h2.9V45h-20v-2.9h2.7V15.9h-2.7v-2.9h20v7.9h-2.9v-5h-10.9V27h6v-3
			H155.6z"/>
		<path class="st0" d="M164.4,42.1h2.7V15.9h-2.7v-2.9h8.9v2.9h-2.8v26.2h8.9v-5h2.9V45h-18V42.1z"/>
		<path class="st0" d="M188.8,42.1h2.7V15.9h-5.4v5H183v-7.9h20.4V21h-3.1v-5H195v26.2h2.8V45h-8.9V42.1z"/>
		<path class="st0" d="M231.1,42.1V45h-8.4v-2.9h2.3l-7.3-11.7l-4.5,2.8v8.9h2.8V45H207v-2.9h2.7V15.9H207v-2.9h15.2
			c1.9,0,3.1,0.4,3.8,1.1c0.7,0.7,1,2.1,1,4.2V21c0,1.1-0.1,1.9-0.3,2.6c-0.2,0.6-0.6,1.2-1.1,1.7c-0.5,0.5-1.2,1-2,1.5
			c-0.9,0.5-1.9,1.2-3.2,2l8.4,13.4H231.1z M213.1,29.7l10.7-6.6v-7.2h-10.7V29.7z"/>
		<path class="st0" d="M259.6,42.1V45h-8.3v-2.9h2.3l-2.1-8.5h-8.9l-2.1,8.5h2.3V45h-8.3v-2.9h2.7l7.4-29.1h5l7.3,29.1H259.6z
			 M250.8,30.9l-3.8-15l-3.8,15H250.8z"/>
		<path class="st0" d="M278,37.1h2.9V45h-13.1c-2.4,0-3.8-0.9-4.3-2.8c-0.2-0.5-0.3-1.1-0.3-1.7V17.7c0-2.1,0.7-3.5,2.2-4.2
			c0.5-0.3,1.2-0.4,2-0.4h13.5v7.9H278v-5h-11.3v26.2H278V37.1z"/>
		<path class="st0" d="M299.5,24v8.9h-2.9v-3h-6v12.2h10.9v-5h2.9V45h-20v-2.9h2.7V15.9h-2.7v-2.9h20v7.9h-2.9v-5h-10.9V27h6v-3
			H299.5z"/>
	</g>
	<g>
		<path class="st0" d="M29.3,1.1c-15.4,0-28,12.5-28,28c0,15.4,12.5,28,28,28s28-12.5,28-28C57.3,13.6,44.8,1.1,29.3,1.1z
			 M48.4,29.1c0,5.1-2,9.9-5.6,13.4c-2.6,2.6-5.8,4.4-9.3,5.1c-0.3,2-2,3.6-4.1,3.6c-2.1,0-3.9-1.6-4.1-3.6
			c-3.5-0.8-6.7-2.5-9.3-5.1c-3.6-3.6-5.6-8.4-5.6-13.4c0-2.1,0.3-4.1,1-6c-0.2-0.1-0.3-0.3-0.5-0.4c-1.6-1.6-1.6-4.3,0-5.9
			c1.3-1.3,3.2-1.6,4.8-0.8c0.1-0.1,0.2-0.2,0.3-0.3C19.5,12,24.3,10,29.3,10c5.1,0,9.9,2,13.4,5.6c0.1,0.1,0.2,0.2,0.3,0.3
			c1.6-0.7,3.5-0.5,4.8,0.8c1.6,1.6,1.6,4.3,0,5.9c-0.2,0.2-0.3,0.3-0.5,0.4C48,25,48.4,27,48.4,29.1z"/>
		<path class="st0" d="M42,22.7c-1.5-1.5-1.6-3.8-0.4-5.4c-3.1-3.2-7.4-5.2-12.2-5.2s-9.1,2-12.2,5.2c1.2,1.6,1,3.9-0.4,5.4
			c-1,1-2.3,1.4-3.5,1.2c-0.5,1.6-0.8,3.4-0.8,5.2c0,8,5.6,14.8,13.1,16.5c0.6-1.6,2.1-2.7,3.9-2.7c1.8,0,3.3,1.1,3.9,2.7
			c7.5-1.8,13.1-8.5,13.1-16.5c0-1.8-0.3-3.6-0.8-5.2C44.3,24,42.9,23.6,42,22.7z M35.4,34.4c0,2.1-1,3.1-3.1,3.1h-8.6v-5.4h2.4v3
			h6.4v-3l-5.9-3.7c-0.6-0.4-1.1-0.7-1.5-0.9c-0.4-0.2-0.8-0.5-1.1-0.7c-0.5-0.5-0.8-1.1-0.8-1.9v-2c0-1,0.2-1.7,0.5-2.1
			c0.6-0.7,1.6-1.1,2.9-1.1H35v5.4h-2.4v-2.9h-6.4v3l6.1,3.8c0.5,0.3,0.9,0.6,1.3,0.8c0.4,0.2,0.7,0.5,1,0.7
			c0.6,0.5,0.9,1.1,0.9,1.8V34.4z"/>
	</g>
</g>
</svg>
