<?xml version="1.0" encoding="UTF-8" standalone="no"?>
<!-- Created with Inkscape (http://www.inkscape.org/) -->

<svg
   version="1.1"
   id="svg4365"
   xml:space="preserve"
   width="682.66669"
   height="682.66669"
   viewBox="0 0 682.66669 682.66669"
   xmlns="http://www.w3.org/2000/svg"
   xmlns:svg="http://www.w3.org/2000/svg"><defs
     id="defs4369"><clipPath
       clipPathUnits="userSpaceOnUse"
       id="clipPath4379"><path
         d="M 0,512 H 512 V 0 H 0 Z"
         id="path4377" /></clipPath></defs><g
     id="g4371"
     transform="matrix(1.3333333,0,0,-1.3333333,0,682.66667)"><g
       id="g4373"><g
         id="g4375"
         clip-path="url(#clipPath4379)"><g
           id="g4381"
           transform="translate(251.1731,260.9585)"><path
             d="m 0,0 10.021,55.524 c 0.251,1.3 2.064,1.422 2.486,0.166 L 28.81,0.433 c 0.395,-1.177 2.063,-1.169 2.446,0.012 l 15.746,55.236 c 0.409,1.259 2.223,1.157 2.487,-0.14 L 60.104,0"
             style="fill:none;stroke:#2287c8;stroke-width:15;stroke-linecap:round;stroke-linejoin:round;stroke-miterlimit:10;stroke-dasharray:none;stroke-opacity:1"
             id="path4383" /></g><g
           id="g4385"
           transform="translate(161.9973,289.022)"><path
             d="m 0,0 c 0,-15.246 -8.461,-27.309 -21.885,-27.543 -4.469,-0.079 -16.017,-0.123 -16.017,-0.123 0,0 -0.073,20.042 -0.073,27.727 0,6.312 -0.04,27.604 -0.04,27.604 h 15.671 C -7.62,27.665 0,15.245 0,0 Z"
             style="fill:none;stroke:#2287c8;stroke-width:15;stroke-linecap:round;stroke-linejoin:round;stroke-miterlimit:10;stroke-dasharray:none;stroke-opacity:1"
             id="path4387" /></g><g
           id="g4389"
           transform="translate(395.0173,289.022)"><path
             d="m 0,0 c 0,-15.745 -12.764,-28.509 -28.508,-28.509 -15.745,0 -28.509,12.764 -28.509,28.509 0,15.745 12.764,28.508 28.509,28.508 C -12.764,28.508 0,15.745 0,0 Z"
             style="fill:none;stroke:#2287c8;stroke-width:15;stroke-linecap:round;stroke-linejoin:round;stroke-miterlimit:10;stroke-dasharray:none;stroke-opacity:1"
             id="path4391" /></g><g
           id="g4393"
           transform="translate(217.132,317.27)"><path
             d="M 0,0 H -23.805 V -56.497 H 0"
             style="fill:none;stroke:#2287c8;stroke-width:15;stroke-linecap:round;stroke-linejoin:round;stroke-miterlimit:10;stroke-dasharray:none;stroke-opacity:1"
             id="path4395" /></g><g
           id="g4397"
           transform="translate(215.3767,289.022)"><path
             d="M 0,0 H -22.05"
             style="fill:none;stroke:#2287c8;stroke-width:15;stroke-linecap:round;stroke-linejoin:round;stroke-miterlimit:10;stroke-dasharray:none;stroke-opacity:1"
             id="path4399" /></g><g
           id="g4401"
           transform="translate(485.7575,137.2593)"><path
             d="m 0,0 h -459.515 v 269.455 c 0,17.563 14.237,31.8 31.8,31.8 H -31.8 c 17.563,0 31.8,-14.237 31.8,-31.8 z"
             style="fill:none;stroke:#2287c8;stroke-width:15;stroke-linecap:round;stroke-linejoin:round;stroke-miterlimit:10;stroke-dasharray:none;stroke-opacity:1"
             id="path4403" /></g><g
           id="g4405"
           transform="translate(180.7898,403.5146)"><path
             d="m 0,0 h 260.706 c 5.115,0 9.262,-4.147 9.262,-9.262 v -211.704 c 0,-5.116 -4.147,-9.263 -9.262,-9.263 h -370.991 c -5.116,0 -9.262,4.147 -9.262,9.263 V -9.262 c 0,5.115 4.146,9.262 9.262,9.262 H -30"
             style="fill:none;stroke:#2287c8;stroke-width:15;stroke-linecap:round;stroke-linejoin:round;stroke-miterlimit:10;stroke-dasharray:none;stroke-opacity:1"
             id="path4407" /></g><g
           id="g4409"
           transform="translate(425.0173,73.4854)"><path
             d="m 0,0 h 45.645 c 18.688,0 33.838,15.15 33.838,33.838 v 23.441 c 0,3.587 -2.908,6.495 -6.495,6.495 h -484.01 c -3.587,0 -6.495,-2.908 -6.495,-6.495 V 33.838 C -417.517,15.15 -402.367,0 -383.679,0 H -30"
             style="fill:none;stroke:#2287c8;stroke-width:15;stroke-linecap:round;stroke-linejoin:round;stroke-miterlimit:10;stroke-dasharray:none;stroke-opacity:1"
             id="path4411" /></g><g
           id="g4413"
           transform="translate(336.4236,105.3726)"><path
             d="m 0,0 h -175.741 c -9.771,0 -17.693,7.921 -17.693,17.692 V 31.887 H 17.693 V 17.692 C 17.693,7.921 9.771,0 0,0 Z"
             style="fill:none;stroke:#2287c8;stroke-width:15;stroke-linecap:round;stroke-linejoin:round;stroke-miterlimit:10;stroke-dasharray:none;stroke-opacity:1"
             id="path4415" /></g></g></g></g></svg>
