<svg id="Layer_1" data-name="Layer 1" xmlns="http://www.w3.org/2000/svg" viewBox="0 0 60 60"><defs><style>.cls-1{fill:#fff;}.cls-2{fill:#0288d1;}</style></defs><circle class="cls-1" cx="30" cy="30" r="27.09"/><path class="cls-2" d="M43.11,29.35a3.42,3.42,0,0,0-2.94-2.67A90.63,90.63,0,0,0,30,26.3a90.81,90.81,0,0,0-10.17.38,3.42,3.42,0,0,0-2.93,2.67,29.24,29.24,0,0,0-.48,6.42,29.33,29.33,0,0,0,.47,6.42,3.44,3.44,0,0,0,2.94,2.66A90.72,90.72,0,0,0,30,45.23a90.81,90.81,0,0,0,10.17-.38,3.42,3.42,0,0,0,2.93-2.66,28.73,28.73,0,0,0,.48-6.42A29.24,29.24,0,0,0,43.11,29.35ZM24.17,30.94h-2V41.38H20.38V30.94H18.45V29.23h5.72Zm5,10.45H27.48v-1a2.65,2.65,0,0,1-1.87,1.11,1,1,0,0,1-1.06-.67,4.69,4.69,0,0,1-.14-1.35V32.33h1.64V39c0,.38,0,.58,0,.63q.06.39.39.39c.33,0,.67-.26,1-.77V32.33h1.65v9.06Zm6.23-2.72a7.26,7.26,0,0,1-.16,1.82,1.3,1.3,0,0,1-1.32,1,2.22,2.22,0,0,1-1.69-1v.88H30.55V29.23h1.64v4a2.22,2.22,0,0,1,1.69-1,1.3,1.3,0,0,1,1.32,1,7,7,0,0,1,.16,1.82Zm6.2-1.51H38.27v1.6q0,1.26.84,1.26c.41,0,.64-.22.73-.66a8.66,8.66,0,0,0,0-1.11h1.68v.24a10.06,10.06,0,0,1,0,1,2.25,2.25,0,0,1-.38,1,2.28,2.28,0,0,1-2,1,2.33,2.33,0,0,1-2-.93,3.47,3.47,0,0,1-.53-2.13V35.28a3.48,3.48,0,0,1,.51-2.13,2.32,2.32,0,0,1,2-.93,2.28,2.28,0,0,1,1.94.93,3.55,3.55,0,0,1,.51,2.13v1.88Z"/><path class="cls-2" d="M39.1,33.69c-.55,0-.83.42-.83,1.26v.84h1.64V35Q39.91,33.69,39.1,33.69Z"/><path class="cls-2" d="M33,33.69a1.18,1.18,0,0,0-.82.4v5.52A1.15,1.15,0,0,0,33,40c.47,0,.71-.41.71-1.22V34.93C33.72,34.11,33.48,33.69,33,33.69Z"/><path class="cls-2" d="M33.92,25.47a2.66,2.66,0,0,0,1.9-1.13v1h1.66V16.19H35.82v7q-.55.78-1,.78-.33,0-.39-.39a3.85,3.85,0,0,1,0-.64V16.19H32.71v7.23a4.81,4.81,0,0,0,.14,1.37A1,1,0,0,0,33.92,25.47Z"/><path class="cls-2" d="M22.38,20.37v5h1.84v-5l2.21-7.31H24.57l-1.26,4.82L22,13.06H20.07l1.18,3.42A30.49,30.49,0,0,1,22.38,20.37Z"/><path class="cls-2" d="M28.89,25.47a2.29,2.29,0,0,0,1.94-.94,3.57,3.57,0,0,0,.51-2.15V19.17A3.6,3.6,0,0,0,30.83,17,2.48,2.48,0,0,0,27,17a3.6,3.6,0,0,0-.52,2.16v3.21A3.56,3.56,0,0,0,27,24.53,2.28,2.28,0,0,0,28.89,25.47Zm-.79-6.63c0-.85.26-1.27.79-1.27s.79.42.79,1.27v3.85c0,.85-.25,1.27-.79,1.27s-.79-.42-.79-1.27Z"/></svg>