<svg xmlns="http://www.w3.org/2000/svg" viewBox="0 0 113.1 113.1" aria-hidden="true">
  <circle cx="57.4" cy="56.6" r="42" fill="#ffffff"/>
  <path fill="#2287c8" d="M84,49.1c-0.3-1-0.7-1.3-1.8-1.4c-4.8-0.3-7.9-5.1-5.9-9.6c0.6-1.4,0.2-2-0.7-2.8c-11-9.8-27.4-9.7-38.2,0.2 c-0.8,0.7-1,1.3-0.5,2.4c2.1,4.6-1,9.5-6,9.8c-1,0.1-1.4,0.4-1.6,1.3c-0.6,2.4-1,4.9-0.9,7.1c0,12.7,8,23.6,19.9,27.3 c1.1,0.4,1.9,0.5,2.7-0.8c2.7-4.3,8.8-4.2,11.6,0.1c0.6,1,1.2,1.2,2.2,0.9C79.1,79.6,88.2,63.4,84,49.1z M66.8,63 c-0.1,1.1,0,2.3-0.1,3.4c-0.3,2.7-1.8,4.1-4.6,4.2c-0.1,0-0.2,0-0.4,0c-2.1,0-4.2,0-6.4,0c-2.2,0-4.5,0-6.7,0 c-1.1,0-1.6-0.2-1.5-1.4c0.1-2.1,0.1-4.2,0-6.4c0-1,0.3-1.5,1.3-1.2c1,0.3,2.9-1.2,2.9,1.5c-0.1,3.4,0,3.4,3.4,3.4 c2.1,0,4.1,0,6.2,0c0.9,0,1.1-0.3,1.2-1.2c0.3-2.5-0.3-4.3-2.8-5.5c-3.5-1.8-6.7-4.1-10.1-6.1c-1.9-1.1-2.8-2.6-2.7-4.8 c0.1-1.2,0-2.5,0.1-3.7c0.2-2.6,1.5-4,4.1-4.2c4.8-0.4,9.6-0.1,14.4-0.2c0.7,0,1,0.3,1,1c0,2.3,0,4.6,0,6.9c0,0.8-0.4,1-1.1,1.1 C62,50,61.9,50,62.1,47c0.1-1.7-0.4-2.3-2.2-2.2c-2.4,0.2-4.7,0.1-7.1,0c-1.1,0-1.4,0.2-1.6,1.4c-0.3,2.6,0.5,4.2,2.9,5.5 c3.3,1.7,6.4,3.9,9.6,5.8C65.9,58.8,67.1,60.5,66.8,63z"/>
  <path fill="#2287c8" d="M56.6,0C25.3,0,0,25.3,0,56.6s25.3,56.6,56.6,56.6c31.2,0,56.6-25.3,56.6-56.6C113.1,25.3,87.8,0,56.6,0z M87.2,47.7c4.6,17.7-4.8,34.3-22.4,39.5c-0.9,0.3-1.3,0.7-1.6,1.6c-1,3-3.6,4.8-6.6,4.8c-3,0-5.5-1.8-6.5-4.7 c-0.4-1.1-1-1.4-1.9-1.7c-13.9-3.9-23.3-16.4-23.3-31.4c0-2.3,0.3-5.1,1.1-7.8c0.3-1,0.2-1.6-0.5-2.4c-2.2-2.3-2.5-5.6-0.9-8.3 c1.6-2.6,4.6-3.9,7.8-3.1c1,0.3,1.6,0,2.3-0.7c12.7-11.8,31.1-11.8,43.9,0c0.8,0.7,1.4,0.9,2.5,0.7c3-0.8,6,0.5,7.6,3.1 c1.6,2.6,1.3,6-0.8,8.3C87.2,46.2,86.9,46.7,87.2,47.7z"/>
</svg>
